<svg xmlns="http://www.w3.org/2000/svg" version="1.1" xmlns:xlink="http://www.w3.org/1999/xlink" xmlns:svgjs="http://svgjs.dev/svgjs" width="1000" height="1000" viewBox="0 0 1000 1000"><g transform="matrix(1,0,0,1,-0.14221556886212738,-0.14221556886229791)"><svg viewBox="0 0 334 334" data-background-color="#ffffff" preserveAspectRatio="xMidYMid meet" height="1000" width="1000" xmlns="http://www.w3.org/2000/svg" xmlns:xlink="http://www.w3.org/1999/xlink"><g id="tight-bounds" transform="matrix(1,0,0,1,0.04749999999998522,0.04750000000001364)"><svg viewBox="0 0 333.90454557049503 333.90454557049503" height="333.90454557049503" width="333.90454557049503"><g><svg></svg></g><g><svg viewBox="0 0 333.90454557049503 333.90454557049503" height="333.90454557049503" width="333.90454557049503"><g><path d="M0 166.952c0-92.205 74.747-166.952 166.952-166.952 92.205 0 166.952 74.747 166.953 166.952 0 92.205-74.747 166.952-166.953 166.953-92.205 0-166.952-74.747-166.952-166.953zM166.952 316.63c82.665 0 149.677-67.013 149.678-149.678 0-82.665-67.013-149.677-149.678-149.677-82.665 0-149.677 67.013-149.677 149.677 0 82.665 67.013 149.677 149.677 149.678z" data-fill-palette-color="tertiary" fill="#915eff" stroke="transparent"></path><ellipse rx="160.27418187383762" ry="160.27418187383762" cx="166.95227278524752" cy="166.95227278524752" fill="#915eff" stroke="transparent" stroke-width="0" fill-opacity="1" data-fill-palette-color="tertiary"></ellipse></g><g transform="matrix(1,0,0,1,80.27081455185055,71.17305217166896)"><svg viewBox="0 0 173.36291646679393 191.55844122715712" height="191.55844122715712" width="173.36291646679393"><g><svg viewBox="0 0 173.36291646679393 191.55844122715712" height="191.55844122715712" width="173.36291646679393"><g><svg viewBox="0 0 173.36291646679393 191.55844122715712" height="191.55844122715712" width="173.36291646679393"><g><svg viewBox="0 0 173.36291646679393 191.55844122715712" height="191.55844122715712" width="173.36291646679393"><g id="textblocktransform"><svg viewBox="0 0 173.36291646679393 191.55844122715712" height="191.55844122715712" width="173.36291646679393" id="textblock"><g><svg viewBox="0 0 173.36291646679393 191.55844122715712" height="191.55844122715712" width="173.36291646679393"><g transform="matrix(1,0,0,1,0,0)"><svg width="173.36291646679393" viewBox="4 -37.900001525878906 34.29999923706055 37.900001525878906" height="191.55844122715712" data-palette-color="#ffffff"><path d="M17.35-37.9Q27.75-37.9 33.02-33.08 38.3-28.25 38.3-18.9L38.3-18.9Q38.3-9.5 33.05-4.75 27.8 0 17.35 0L17.35 0 4 0 4-37.9 17.35-37.9ZM29.2-19.05Q29.2-24.9 26.3-27.6 23.4-30.3 17.35-30.3L17.35-30.3 13-30.3 13-7.6 17.35-7.6Q23.5-7.6 26.35-10.33 29.2-13.05 29.2-19.05L29.2-19.05Z" opacity="1" transform="matrix(1,0,0,1,0,0)" fill="#ffffff" class="wordmark-text-0" data-fill-palette-color="quaternary" id="text-0"></path></svg></g></svg></g></svg></g></svg></g><g></g></svg></g></svg></g></svg></g></svg></g><defs></defs></svg><rect width="333.90454557049503" height="333.90454557049503" fill="none" stroke="none" visibility="hidden"></rect></g></svg></g></svg>